<svg xmlns="http://www.w3.org/2000/svg" viewBox="0 0 200 150">
  <defs>
    <linearGradient id="paperGradient" x1="0%" y1="0%" x2="100%" y2="100%">
      <stop offset="0%" style="stop-color:#fff5f6"/>
      <stop offset="100%" style="stop-color:#ffebee"/>
    </linearGradient>
    <linearGradient id="shadowGradient" x1="0%" y1="0%" x2="0%" y2="100%">
      <stop offset="0%" style="stop-color:rgba(0,0,0,0.1)"/>
      <stop offset="100%" style="stop-color:rgba(0,0,0,0)"/>
    </linearGradient>
  </defs>
  
  <!-- Envelope base -->
  <rect x="10" y="20" width="180" height="120" rx="5" ry="5" fill="url(#paperGradient)" stroke="#ffb6c1" stroke-width="2"/>
  
  <!-- Envelope flap (top) -->
  <path d="M10,40 L100,90 L190,40 L190,25 Q190,20 185,20 L15,20 Q10,20 10,25 Z" fill="#ffc0cb" stroke="#ffb6c1" stroke-width="2"/>
  
  <!-- Envelope shadow -->
  <rect x="10" y="40" width="180" height="100" fill="url(#shadowGradient)" opacity="0.5"/>
  
  <!-- Decorative hearts -->
  <path d="M40,60 Q40,50 50,50 Q60,50 60,60 T70,70 L50,85 L30,70 Q30,60 40,60Z" fill="#ff69b4" opacity="0.6"/>
  <path d="M150,100 Q150,90 160,90 Q170,90 170,100 T180,110 L160,125 L140,110 Q140,100 150,100Z" fill="#ff69b4" opacity="0.6"/>
</svg>